Coordinates
version=1
nRows=24
nColumns=38
inDegrees=no

Units are S.I. units (second, meters, Newtons, ...)
If the header above contains a line with 'inDegrees', this indicates whether rotational values are in degrees (yes) or radians (no).

endheader
time	pelvis_tilt	pelvis_list	pelvis_rotation	pelvis_tx	pelvis_ty	pelvis_tz	hip_flexion_r	hip_adduction_r	hip_rotation_r	knee_angle_r	ankle_angle_r	subtalar_angle_r	mtp_angle_r	hip_flexion_l	hip_adduction_l	hip_rotation_l	knee_angle_l	ankle_angle_l	subtalar_angle_l	mtp_angle_l	lumbar_extension	lumbar_bending	lumbar_rotation	arm_flex_r	arm_add_r	arm_rot_r	elbow_flex_r	pro_sup_r	wrist_flex_r	wrist_dev_r	arm_flex_l	arm_add_l	arm_rot_l	elbow_flex_l	pro_sup_l	wrist_flex_l	wrist_dev_l
1.14	0.0188609	-0.0244391	0.0223518	0.91559	0.984337	-0.306104	0.376325	0.0612621	-0.149781	-0.300204	-0.00691374	-0.00669168	8.85539e-05	-0.220412	-0.00370071	-0.060097	-0.597362	-0.277145	-0.0202147	0.000200687	-0.266609	0.0512108	-0.0828809	-0.701722	-0.251499	-0.0481662	1.79345	1.5132	0.0517438	0.0158145	-0.117313	-0.429905	0.0524608	2.23223	2.05038	0.079674	-0.0283897
1.15	0.0298638	-0.0297039	0.0189905	0.917076	0.979493	-0.304533	0.379424	0.0682154	-0.144738	-0.366715	-0.00753056	-0.00669168	8.85539e-05	-0.205135	-0.023732	-0.0810054	-0.683719	-0.311254	-0.0202147	0.000200687	-0.275676	0.0577577	-0.0661349	-0.708487	-0.251691	-0.0576929	1.81161	1.50641	0.0517438	0.0158145	-0.118707	-0.432998	0.0532111	2.22637	2.06491	0.079674	-0.0283897
1.16	0.0411476	-0.0367767	0.0156746	0.918237	0.974203	-0.303044	0.380836	0.0773532	-0.139242	-0.431997	0.00207222	-0.00669168	8.85539e-05	-0.187339	-0.0450107	-0.0990614	-0.769692	-0.333841	-0.0202147	0.000200687	-0.285894	0.0659015	-0.0489243	-0.709539	-0.254561	-0.0643347	1.82531	1.50131	0.0517438	0.0158145	-0.122286	-0.434279	0.0529722	2.21738	2.07765	0.079674	-0.0283897
1.17	0.0526823	-0.0455707	0.012463	0.919084	0.968804	-0.301612	0.380493	0.0885568	-0.133413	-0.495766	0.0215347	-0.00669168	8.85539e-05	-0.166962	-0.0673682	-0.114088	-0.855173	-0.345028	-0.0202147	0.000200687	-0.297202	0.0755562	-0.0313652	-0.704838	-0.260099	-0.0680387	1.83448	1.49797	0.0517438	0.0158145	-0.128083	-0.433751	0.0517155	2.20529	2.08857	0.079674	-0.0283897
1.18	0.0643354	-0.0558316	0.00952882	0.919591	0.963549	-0.300222	0.378189	0.101477	-0.127556	-0.557224	0.0497895	-0.00669168	8.85539e-05	-0.143837	-0.090301	-0.125604	-0.939827	-0.34532	-0.0202147	0.000200687	-0.309434	0.0864686	-0.0137925	-0.69429	-0.268255	-0.0686711	1.83904	1.49658	0.0517438	0.0158145	-0.136181	-0.43143	0.0493637	2.19027	2.09764	0.079674	-0.0283897
1.19	0.0758592	-0.0670811	0.00716505	0.919714	0.958528	-0.298909	0.373592	0.115511	-0.122115	-0.615057	0.0849884	-0.00669168	8.85539e-05	-0.117705	-0.112928	-0.132864	-1.023	-0.33586	-0.0202147	0.000200687	-0.322304	0.098204	0.00323207	-0.677801	-0.278905	-0.0660465	1.83888	1.4975	0.0517438	0.0158145	-0.14668	-0.427358	0.0458004	2.17265	2.10486	0.079674	-0.0283897
1.2	0.0869043	-0.0786515	0.00573762	0.919416	0.953764	-0.297747	0.366317	0.129872	-0.117558	-0.667671	0.124744	-0.00669168	8.85539e-05	-0.0882934	-0.134093	-0.135078	-1.10371	-0.318523	-0.0202147	0.000200687	-0.335438	0.110192	0.0190275	-0.655385	-0.291807	-0.0600145	1.83406	1.50119	0.0517438	0.0158145	-0.159624	-0.421608	0.0409062	2.15294	2.11036	0.079674	-0.0283897
1.21	0.0971312	-0.0898215	0.00558186	0.918691	0.949331	-0.296791	0.356041	0.143704	-0.114228	-0.713515	0.166525	-0.00669168	8.85539e-05	-0.0554112	-0.152559	-0.131701	-1.1807	-0.29574	-0.0202147	0.000200687	-0.348403	0.12179	0.0329721	-0.627299	-0.306572	-0.0505717	1.82494	1.50805	0.0517438	0.0158145	-0.174914	-0.414295	0.0346112	2.13183	2.1144	0.079674	-0.0283897
1.22	0.106225	-0.0998918	0.00688349	0.917574	0.945367	-0.296055	0.342574	0.156219	-0.112224	-0.751365	0.208025	-0.00669168	8.85539e-05	-0.0190638	-0.167221	-0.122684	-1.25255	-0.270109	-0.0202147	0.000200687	-0.360766	0.132357	0.0446947	-0.594149	-0.322668	-0.0379579	1.81226	1.51827	0.0517438	0.0158145	-0.192257	-0.405576	0.0269471	2.11009	2.11755	0.079674	-0.0283897
1.23	0.113928	-0.108256	0.00957189	0.916131	0.942027	-0.295522	0.325898	0.166782	-0.111328	-0.780475	0.247394	-0.00669168	8.85539e-05	0.0204914	-0.177256	-0.108618	-1.31782	-0.243933	-0.0202147	0.000200687	-0.372108	0.141288	0.0542002	-0.556926	-0.339454	-0.022696	1.79718	1.5316	0.0517438	0.0158145	-0.211171	-0.395658	0.0180718	2.08848	2.1207	0.079674	-0.0283897
1.24	0.120019	-0.114462	0.0132814	0.914444	0.939422	-0.295141	0.306195	0.174938	-0.111012	-0.800608	0.283335	-0.00669168	8.85539e-05	0.0627613	-0.182206	-0.0907303	-1.37515	-0.218853	-0.0202147	0.000200687	-0.38203	0.148008	0.0618793	-0.516942	-0.356272	-0.00555415	1.78117	1.5474	0.0517438	0.0158145	-0.231077	-0.384801	0.00824403	2.06769	2.12503	0.079674	-0.0283897
1.25	0.12429	-0.11818	0.0173768	0.912599	0.937612	-0.294851	0.283796	0.180425	-0.110527	-0.811963	0.315083	-0.00669168	8.85539e-05	0.107051	-0.182006	-0.0707361	-1.4234	-0.195688	-0.0202147	0.000200687	-0.390175	0.152001	0.0684131	-0.475689	-0.372532	0.0125532	1.76585	1.56451	0.0517438	0.0158145	-0.251427	-0.373308	-0.00223452	2.04827	2.13186	0.079674	-0.0283897
1.26	0.126608	-0.11923	0.0210697	0.910682	0.936611	-0.294589	0.2591	0.183139	-0.109059	-0.815049	0.342306	-0.00669168	8.85539e-05	0.152524	-0.176959	-0.0505854	-1.46171	-0.174523	-0.0202147	0.000200687	-0.396265	0.152834	0.0746075	-0.434659	-0.387787	0.0306832	1.7528	1.58144	0.0517438	0.0158145	-0.27182	-0.361525	-0.0130843	2.03063	2.14227	0.079674	-0.0283897
1.27	0.126935	-0.117582	0.023588	0.908771	0.936403	-0.294298	0.232489	0.183108	-0.105911	-0.810546	0.364945	-0.00669168	8.85539e-05	0.198254	-0.167687	-0.0321715	-1.48949	-0.154935	-0.0202147	0.000200687	-0.400151	0.150213	0.0812129	-0.395183	-0.401754	0.0479588	1.74333	1.5965	0.0517438	0.0158145	-0.292077	-0.349826	-0.0240844	2.01506	2.15675	0.079674	-0.0283897
1.28	0.12534	-0.113332	0.024348	0.906936	0.936952	-0.293937	0.20426	0.180461	-0.100675	-0.799185	0.38304	-0.00669168	8.85539e-05	0.243299	-0.155043	-0.0170643	-1.50644	-0.136293	-0.0202147	0.000200687	-0.401838	0.144041	0.0887753	-0.358327	-0.414296	0.063618	1.73838	1.60814	0.0517438	0.0158145	-0.312231	-0.338594	-0.03506	2.00173	2.17488	0.079674	-0.0283897
1.29	0.12203	-0.106713	0.0230654	0.905234	0.93822	-0.293489	0.174633	0.175375	-0.093333	-0.781682	0.396573	-0.00669168	8.85539e-05	0.286772	-0.139989	-0.00634374	-1.51249	-0.118029	-0.0202147	0.000200687	-0.401458	0.134434	0.0975512	-0.324852	-0.425375	0.0770231	1.73841	1.61514	0.0517438	0.0158145	-0.332469	-0.328189	-0.0458232	1.99074	2.1952	0.079674	-0.0283897
1.3	0.117283	-0.0980293	0.019788	0.903713	0.940166	-0.292952	0.143775	0.168048	-0.0842746	-0.75871	0.405361	-0.00669168	8.85539e-05	0.327888	-0.123473	-0.000545006	-1.50769	-0.0998224	-0.0202147	0.000200687	-0.399239	0.12171	0.107506	-0.295236	-0.435001	0.0876535	1.74346	1.61684	0.0517438	0.0158145	-0.353027	-0.318922	-0.0561066	1.98208	2.21538	0.079674	-0.0283897
1.31	0.111403	-0.0876143	0.0148487	0.902408	0.942743	-0.292352	0.111853	0.158678	-0.0742362	-0.730917	0.409014	-0.00669168	8.85539e-05	0.365998	-0.106311	0.000299203	-1.4922	-0.0816545	-0.0202147	0.000200687	-0.395459	0.106349	0.118368	-0.269717	-0.4432	0.0951094	1.75314	1.61326	0.0517438	0.0158145	-0.374087	-0.311017	-0.0655482	1.97562	2.23278	0.079674	-0.0283897
1.32	0.104671	-0.0758102	0.00877168	0.901336	0.945891	-0.291732	0.0790738	0.147463	-0.0641816	-0.698958	0.406975	-0.00669168	8.85539e-05	0.400586	-0.089125	-0.00344344	-1.46619	-0.0637411	-0.0202147	0.000200687	-0.390393	0.0889422	0.129719	-0.248343	-0.450005	0.099136	1.76676	1.60498	0.0517438	0.0158145	-0.395706	-0.30459	-0.0737332	1.97113	2.24491	0.079674	-0.0283897
1.33	0.0973253	-0.0629651	0.00216464	0.9005	0.949542	-0.291141	0.0456997	0.13463	-0.0551603	-0.663512	0.398602	-0.00669168	8.85539e-05	0.431251	-0.0723276	-0.0111208	-1.42979	-0.0464007	-0.0202147	0.000200687	-0.384283	0.0701429	0.141091	-0.231027	-0.455459	0.0996569	1.78347	1.59301	0.0517438	0.0158145	-0.417797	-0.299637	-0.0802822	1.96831	2.2499	0.079674	-0.0283897
1.34	0.0895454	-0.0494458	-0.00437634	0.899897	0.953622	-0.290627	0.0120428	0.12047	-0.0481655	-0.625301	0.383297	-0.00669168	8.85539e-05	0.45768	-0.0561467	-0.0218935	-1.38316	-0.0299253	-0.0202147	0.000200687	-0.377321	0.0506411	0.152043	-0.217578	-0.459627	0.0968009	1.80236	1.57855	0.0517438	0.0158145	-0.440139	-0.296041	-0.0849494	1.96684	2.24674	0.079674	-0.0283897
1.35	0.081458	-0.0356643	-0.0103344	0.899523	0.958051	-0.290232	-0.02155	0.105369	-0.0440072	-0.58509	0.360639	-0.00669168	8.85539e-05	0.47962	-0.0406777	-0.034801	-1.32643	-0.0145094	-0.0202147	0.000200687	-0.369646	0.0311372	0.162213	-0.207739	-0.462595	0.0909043	1.82254	1.5628	0.0517438	0.0158145	-0.462427	-0.293591	-0.0876903	1.96644	2.23541	0.079674	-0.0283897
1.36	0.0731499	-0.0220928	-0.0153178	0.899376	0.962737	-0.289989	-0.0547189	0.0898288	-0.0432046	-0.543695	0.330511	-0.00669168	8.85539e-05	0.496863	-0.0259453	-0.0488056	-1.25984	-0.000244931	-0.0202147	0.000200687	-0.361355	0.0123288	0.171349	-0.201204	-0.464473	0.0824824	1.84324	1.54689	0.0517438	0.0158145	-0.484332	-0.292003	-0.0886761	1.9669	2.21699	0.079674	-0.0283897
1.37	0.0646823	-0.00924674	-0.0190839	0.899455	0.967575	-0.289916	-0.0871016	0.0744657	-0.0459072	-0.501997	0.293186	-0.00669168	8.85539e-05	0.509246	-0.0119659	-0.0628334	-1.1838	0.0128411	-0.0202147	0.000200687	-0.352526	-0.00509634	0.179315	-0.197638	-0.465396	0.0721733	1.86385	1.53186	0.0517438	0.0158145	-0.505544	-0.29094	-0.0882642	1.96806	2.1935	0.079674	-0.0283897
